<?xml version="1.0" standalone="no"?>
<!DOCTYPE svg PUBLIC "-//W3C//DTD SVG 20010904//EN"
 "http://www.w3.org/TR/2001/REC-SVG-20010904/DTD/svg10.dtd">
<svg version="1.0" xmlns="http://www.w3.org/2000/svg"
 width="480.000000pt" height="320.000000pt" viewBox="0 0 480.000000 320.000000"
 preserveAspectRatio="xMidYMid meet">

<g transform="translate(0.000000,320.000000) scale(0.100000,-0.100000)"
fill="#000000" stroke="none">
<path d="M10 1600 l0 -840 545 0 545 0 0 840 0 840 -545 0 -545 0 0 -840z
m802 59 c42 -50 39 -107 -6 -157 -30 -32 -40 -37 -78 -37 -55 0 -95 25 -115
73 -20 47 -5 100 39 137 28 24 39 27 82 22 42 -4 55 -10 78 -38z m-222 29 c0
-2 -8 -25 -18 -53 -16 -46 -21 -50 -57 -56 -63 -11 -92 -26 -139 -69 l-44 -41
-46 13 c-26 7 -46 18 -46 26 0 8 24 37 54 67 54 52 120 91 180 106 29 7 116
12 116 7z m317 -220 c26 -48 28 -62 28 -158 -1 -86 -5 -113 -22 -150 -28 -59
-52 -89 -60 -72 -3 7 -16 26 -30 43 -25 29 -25 30 -8 65 26 55 30 134 11 194
l-17 52 31 31 c16 17 30 34 30 39 0 18 11 5 37 -44z m-607 -33 c55 -28 76
-105 45 -165 -18 -34 -62 -60 -102 -60 -41 0 -92 36 -109 76 -42 100 69 199
166 149z m40 -289 c26 -43 96 -90 155 -105 35 -9 45 -16 45 -32 0 -11 7 -34
16 -51 l16 -31 -58 6 c-110 11 -231 93 -283 192 l-21 40 37 6 c67 11 71 10 93
-25z m429 -22 c17 -14 36 -43 42 -64 16 -52 -10 -106 -64 -133 -33 -17 -44
-18 -77 -8 -74 22 -113 109 -79 172 31 59 127 76 178 33z"/>
<path d="M2113 1753 c-10 -4 -13 -97 -13 -418 l0 -413 48 -11 c196 -44 327 -5
396 118 25 46 31 68 34 140 5 100 -6 148 -47 213 -69 108 -197 135 -343 73
-17 -7 -18 4 -18 149 0 155 0 156 -22 155 -13 0 -29 -3 -35 -6z m308 -356 c71
-47 106 -182 75 -289 -31 -106 -90 -148 -211 -148 -125 0 -115 -19 -115 217
l0 204 43 19 c62 28 163 27 208 -3z"/>
<path d="M1363 1383 c4 -317 7 -336 65 -404 55 -64 102 -83 207 -84 136 0 204
36 252 133 l28 57 3 293 3 292 -35 0 -36 0 0 -238 c0 -131 -5 -265 -11 -298
-21 -116 -87 -174 -199 -174 -80 0 -132 27 -167 87 l-28 48 -3 288 -3 287 -40
0 -40 0 4 -287z"/>
<path d="M3967 1653 l-28 -4 3 -322 c3 -303 4 -324 23 -357 31 -52 73 -72 153
-72 40 0 82 6 105 16 33 13 37 19 31 38 -9 32 -9 32 -45 19 -41 -14 -111 -14
-142 0 -48 22 -52 41 -55 252 l-4 197 116 0 116 0 0 30 0 30 -115 0 -115 0 0
90 c0 50 -3 89 -7 89 -5 -1 -21 -4 -36 -6z"/>
<path d="M3455 1484 c-11 -3 -44 -10 -72 -15 l-53 -10 0 -275 0 -274 35 0 35
0 0 245 0 245 26 10 c14 6 60 10 102 10 60 0 85 -5 110 -20 56 -35 65 -71 70
-292 l4 -198 35 0 35 0 -4 208 c-3 169 -7 214 -21 247 -21 48 -51 81 -91 102
-30 15 -172 27 -211 17z"/>
<path d="M2720 1283 c0 -208 6 -249 43 -304 38 -57 89 -79 186 -79 46 0 113 5
148 11 l63 11 0 279 0 279 -35 0 -35 0 0 -254 0 -253 -37 -7 c-121 -19 -202 2
-238 64 -18 32 -20 56 -23 243 l-4 207 -34 0 -34 0 0 -197z"/>
<path d="M4350 1287 c0 -261 20 -325 114 -368 72 -33 326 -19 326 17 0 8 0
132 1 277 l0 262 -33 0 -33 0 -3 -252 -2 -252 -56 -7 c-69 -8 -149 1 -179 20
-50 33 -60 75 -63 294 l-4 202 -34 0 -34 0 0 -193z"/>
</g>
</svg>
